<?xml version="1.0" standalone="no"?><!DOCTYPE svg PUBLIC "-//W3C//DTD SVG 1.1//EN" "http://www.w3.org/Graphics/SVG/1.1/DTD/svg11.dtd"><svg t="1665197221205" class="icon" viewBox="0 0 1024 1024" version="1.1" xmlns="http://www.w3.org/2000/svg" p-id="3218" xmlns:xlink="http://www.w3.org/1999/xlink" width="200" height="200"><path d="M879.5 320v462.3l-32 53.3-32-53.3V320h64m64-64h-192v544l96 160 96-160V256zM943.5 64h-192v128h192V64zM655.5 287h-543c-17.7 0-32-14.3-32-32s14.3-32 32-32h543c17.7 0 32 14.3 32 32s-14.3 32-32 32zM534.8 544H112.5c-17.7 0-32-14.3-32-32s14.3-32 32-32h422.3c17.7 0 32 14.3 32 32s-14.3 32-32 32zM474.5 799h-362c-17.7 0-32-14.3-32-32s14.3-32 32-32h362c17.7 0 32 14.3 32 32s-14.3 32-32 32z" p-id="3219"></path></svg>