<?xml version="1.0" standalone="no"?><!DOCTYPE svg PUBLIC "-//W3C//DTD SVG 1.1//EN" "http://www.w3.org/Graphics/SVG/1.1/DTD/svg11.dtd"><svg t="1665197210734" class="icon" viewBox="0 0 1024 1024" version="1.1" xmlns="http://www.w3.org/2000/svg" p-id="3064" xmlns:xlink="http://www.w3.org/1999/xlink" width="200" height="200"><path d="M173.96 842.701h97.099c16.936 0 30.662-13.771 30.662-30.757V377.898c0-16.99-13.728-30.759-30.662-30.759H173.96c-16.937 0-30.663 13.772-30.663 30.759v434.044c-0.002 16.988 13.726 30.76 30.663 30.76z m311.932 0h97.098c16.936 0 30.663-20.132 30.663-44.969V163.127c0-24.839-13.729-44.973-30.663-44.973h-97.098c-16.934 0-30.662 20.134-30.662 44.973v634.605c0 24.837 13.726 44.97 30.662 44.97z m311.932 0h97.098c16.936 0 30.662-18.706 30.662-41.79V211.209c0-23.08-13.728-41.788-30.662-41.788h-97.098c-16.937 0-30.663 18.708-30.663 41.788v589.702c-0.002 23.082 13.726 41.79 30.663 41.79z m-758.44 51.265H1024v51.265H39.385v-51.265z" p-id="3065"></path></svg>