<svg width="332.413330" height="258.551086" viewBox="0 0 332.413 258.551" fill="none" xmlns="http://www.w3.org/2000/svg" xmlns:xlink="http://www.w3.org/1999/xlink">
	<desc>
			Created with Pixso.
	</desc>
	<path d="M332.413 258.551C221.609 258.551 110.804 258.551 0 258.551C0 172.364 0 86.1873 0 0C110.804 0 221.609 0 332.413 0C332.413 86.1873 332.413 172.375 332.413 258.551ZM210.808 128.662C214.981 125.956 218.233 123.743 221.567 121.705C224.705 119.788 225.927 117.203 225.865 113.215C225.648 98.7972 225.679 84.3687 225.875 69.9512C225.938 65.6347 224.954 63.8599 220.428 63.8709C173.663 64.0242 126.907 64.0023 80.1416 63.8599C75.7819 63.849 74.6014 65.4266 74.6118 69.8636C74.7567 104.363 74.7982 138.873 74.5807 173.372C74.5496 178.247 76.2479 181.062 79.8206 183.593C107.853 203.521 135.844 223.515 163.763 243.608C166.155 245.328 167.677 245.382 170.1 243.586C180.394 235.939 190.884 228.599 201.302 221.138C218.854 208.572 236.428 196.039 253.908 183.363C255.782 182.005 258.205 179.934 258.444 177.929C259.086 172.638 258.661 167.215 258.661 160.663C256 162.35 254.395 163.271 252.883 164.344C225.378 184.075 197.915 203.883 170.307 223.46C168.785 224.545 165.482 224.742 164.022 223.723C140.193 206.972 116.5 190.013 92.8893 172.922C91.4602 171.882 90.1555 169.406 90.1451 167.587C90.0001 140.209 90.1037 112.82 90.0623 85.4424C90.0623 81.9257 91.3567 80.6767 94.6912 80.6877C131.619 80.7644 168.547 80.7644 205.475 80.6329C209.42 80.6219 210.549 82.2434 210.497 86.1216C210.363 97.9865 210.425 109.851 210.446 121.716C210.477 123.655 210.653 125.584 210.808 128.662ZM166.642 28.846C139.034 28.846 111.436 28.8241 83.8282 28.9117C73.9801 28.9446 74.7775 26.9945 74.6946 38.4759C74.6428 45.608 74.6843 45.6299 81.5604 45.6299C116.759 45.6299 151.947 45.6189 187.146 45.6189C204.222 45.6189 221.309 45.6518 238.385 45.608C241.378 45.597 243.842 45.6847 243.832 50.045C243.739 74.8703 243.842 99.6955 243.614 124.51C243.594 126.646 242.082 129.528 240.404 130.755C217.28 147.604 193.98 164.191 170.794 180.942C168.122 182.87 166.01 182.925 163.328 180.975C151.409 172.32 139.438 163.742 127.342 155.35C124.37 153.279 123.273 150.825 123.293 147.199C123.386 134.786 123.304 122.374 123.293 109.961C123.283 98.9396 123.283 99.0601 112.7 99.345C109.23 99.4436 107.812 100.605 107.843 104.461C107.977 121.979 107.801 139.508 108.06 157.026C108.091 159.129 109.614 161.934 111.27 163.15C128.264 175.596 145.475 187.691 162.489 200.103C165.896 202.59 168.299 202.393 171.664 199.95C198.785 180.263 225.979 160.674 253.349 141.359C257.294 138.577 258.868 135.783 258.837 130.809C258.64 99.0491 258.63 67.2999 258.827 35.5398C258.858 30.3907 257.688 28.6707 252.562 28.7145C223.918 28.9774 195.275 28.846 166.642 28.846Z" fill-rule="evenodd" fill="#FFFFFF"/>
	<path d="M210.808 128.662C210.653 125.573 210.487 123.655 210.477 121.738C210.456 109.873 210.383 98.0084 210.528 86.1435C210.57 82.2652 209.451 80.6438 205.506 80.6548C168.578 80.7862 131.65 80.7753 94.7222 80.7096C91.3877 80.6986 90.0829 81.9475 90.0933 85.4643C90.1244 112.842 90.0208 140.231 90.1761 167.609C90.1865 169.428 91.4809 171.904 92.9204 172.944C116.531 190.035 140.225 207.005 164.053 223.745C165.502 224.764 168.806 224.556 170.339 223.482C197.946 203.905 225.409 184.108 252.914 164.366C254.415 163.282 256.031 162.372 258.692 160.685C258.692 167.237 259.117 172.67 258.475 177.951C258.236 179.956 255.813 182.027 253.939 183.385C236.459 196.061 218.885 208.583 201.333 221.16C190.915 228.62 180.425 235.961 170.131 243.608C167.708 245.404 166.186 245.35 163.794 243.63C135.875 223.537 107.884 203.532 79.8517 183.615C76.279 181.073 74.5807 178.269 74.6118 173.394C74.8292 138.894 74.7878 104.384 74.6428 69.8854C74.6221 65.4484 75.8027 63.8708 80.1727 63.8818C126.938 64.0242 173.694 64.0461 220.459 63.8927C224.985 63.8818 225.969 65.6566 225.906 69.9731C225.71 84.3906 225.679 98.819 225.896 113.237C225.958 117.224 224.726 119.799 221.598 121.727C218.233 123.754 214.981 125.956 210.808 128.662Z" fill-rule="evenodd" fill="#000000"/>
	<path d="M166.642 28.846C195.275 28.846 223.918 28.9774 252.551 28.7255C257.677 28.6816 258.847 30.4017 258.816 35.5508C258.62 67.3109 258.63 99.0602 258.827 130.82C258.858 135.794 257.284 138.588 253.338 141.37C225.979 160.685 198.785 180.274 171.654 199.961C168.288 202.404 165.886 202.601 162.479 200.114C145.475 187.691 128.254 175.607 111.26 163.161C109.603 161.945 108.081 159.129 108.05 157.037C107.791 139.519 107.977 121.99 107.832 104.472C107.801 100.616 109.22 99.4545 112.689 99.3559C123.273 99.0711 123.273 98.9615 123.283 109.972C123.304 122.385 123.386 134.797 123.283 147.21C123.252 150.836 124.35 153.29 127.332 155.361C139.417 163.753 151.388 172.331 163.317 180.986C166 182.925 168.112 182.881 170.784 180.953C193.97 164.202 217.27 147.615 240.394 130.766C242.071 129.539 243.583 126.657 243.604 124.521C243.842 99.6956 243.728 74.8703 243.822 50.056C243.842 45.6956 241.378 45.608 238.375 45.619C221.298 45.6628 204.212 45.6299 187.135 45.6299C151.937 45.6299 116.749 45.6409 81.55 45.6409C74.6739 45.6409 74.6325 45.619 74.6842 38.4869C74.7671 27.0055 73.9697 28.9446 83.8178 28.9227C111.426 28.846 139.034 28.846 166.642 28.846Z" fill-rule="evenodd" fill="#000000"/>
	<defs/>
</svg>
